<svg xmlns="http://www.w3.org/2000/svg"  viewBox="0 0 50 50" width="50px" height="50px"><path d="M 28 0.57421875 L 28 3.4238281 C 24.445167 1.0218105 19.990234 1 19.990234 1 L 18.529297 1.0136719 L 19.390625 3.1679688 C 18.351387 3.0341895 17.319057 2.9844175 16.417969 3.0253906 C 14.948722 3.0921983 13.828125 3.2871094 13.828125 3.2871094 L 13 3.4316406 L 13 5 L 8.328125 5 L 10.492188 9.03125 L 5.5683594 10.105469 L 6.09375 11.238281 C 6.5819801 12.290408 7.739586 14.900919 7.9335938 15.337891 L 6.8046875 19.037109 L 7.5253906 19.425781 C 8.1899842 19.783808 9.1165748 20.918736 9.8066406 22.019531 A 1.0001 1.0001 0 0 0 9.2597656 22.328125 L 7.2597656 24.527344 A 1.0001 1.0001 0 0 0 7 25.199219 L 7 28.5 A 1.0001 1.0001 0 0 0 7.0898438 28.914062 L 8 30.916016 L 8 32.900391 A 1.0001 1.0001 0 0 0 8.5175781 33.775391 L 10.126953 34.662109 C 10.054447 35.240519 10 35.645992 10 36 C 10 37.732314 11.073467 39.138043 12.650391 42.720703 C 13.4163 44.460008 13.992075 45.902179 14.742188 47.027344 C 15.492297 48.152509 16.614705 49 18.019531 49 L 25 49 L 31.980469 49 C 33.384955 49 34.507421 48.152502 35.257812 47.027344 C 36.008204 45.902185 36.584114 44.460195 37.349609 42.720703 C 38.926506 39.138105 40 37.732857 40 36 C 40 35.645992 39.945553 35.240548 39.873047 34.662109 L 41.482422 33.775391 A 1.0001 1.0001 0 0 0 42 32.900391 L 42 30.916016 L 42.910156 28.914062 A 1.0001 1.0001 0 0 0 43 28.5 L 43 25.199219 A 1.0001 1.0001 0 0 0 42.740234 24.527344 L 40.740234 22.328125 A 1.0001 1.0001 0 0 0 40.173828 22.017578 L 42 20.025391 L 42 15.867188 L 44.285156 14.619141 L 43.109375 11.947266 L 44.652344 9 L 41 9 L 41 5.0253906 L 37.480469 6.3066406 C 37.119234 5.7087714 36.665684 5.1640709 36.101562 4.6914062 C 35.235853 3.9660479 34.20738 3.3370434 33.212891 2.8046875 C 31.223913 1.7399757 29.341797 1.0605469 29.341797 1.0605469 L 28 0.57421875 z M 21.558594 3.2050781 C 23.235573 3.3652599 26.200361 3.8175863 28.267578 6.0449219 L 30 7.9121094 L 30 3.5449219 C 30.67941 3.8194091 31.11432 3.9499678 32.269531 4.5683594 C 33.188667 5.0603785 34.117335 5.6388739 34.816406 6.2246094 C 35.515477 6.8103448 35.939021 7.4073079 36.027344 7.7773438 L 36.287109 8.8671875 L 39 7.8828125 L 39 11 L 41.345703 11 L 40.890625 11.871094 L 41.714844 13.744141 L 40 14.679688 L 40 19.248047 L 38.373047 21.023438 L 36.539062 16.021484 L 35.521484 16.576172 L 32.357422 18.302734 L 30.048828 14.527344 L 27.048828 18.890625 L 25.294922 16.019531 L 20.261719 19.587891 L 18.322266 16.681641 L 15.927734 17.996094 L 14.28125 14.451172 L 11.816406 21.5 C 11.725296 21.339322 11.751556 21.351614 11.650391 21.183594 C 11.018874 20.134752 10.176154 19.045357 9.140625 18.234375 L 10.064453 15.207031 L 9.9140625 14.867188 C 9.9140625 14.867188 9.0570381 12.953733 8.4160156 11.53125 L 13.507812 10.419922 L 11.671875 7 L 15 7 L 15 5.1738281 C 15.403422 5.1175891 15.64431 5.0627904 16.509766 5.0234375 C 17.850019 4.9624955 19.514202 5.0395685 20.669922 5.4433594 L 22.744141 6.1679688 L 21.558594 3.2050781 z M 29.951172 18.201172 L 31.642578 20.970703 L 35.458984 18.888672 L 37 23.087891 C 37.000585 23.15186 37.011627 24.319243 37 25.992188 C 36.994244 26.798576 37.105589 28.039359 37.244141 29.365234 L 35.587891 31.064453 L 35.580078 31.074219 C 34.574239 32.160194 34 33.528483 34 34.947266 L 34 45.222656 C 33.861661 45.482299 33.726698 45.718623 33.59375 45.917969 C 33.033642 46.75781 32.701982 47 31.980469 47 L 25 47 L 18.019531 47 C 17.297357 47 16.96614 46.757804 16.40625 45.917969 C 16.273407 45.718704 16.138307 45.482339 16 45.222656 L 16 34.947266 C 16 33.528483 15.425748 32.160228 14.419922 31.074219 L 14.412109 31.064453 L 12.755859 29.365234 C 12.894317 28.039612 13.00578 26.798457 13 25.992188 C 12.992705 24.942519 12.997636 24.696017 13 24.169922 L 14.542969 19.761719 L 15.013672 20.779297 L 17.677734 19.318359 L 19.738281 22.410156 L 24.705078 18.890625 L 26.951172 22.564453 L 29.951172 18.201172 z M 15.474609 23.6875 L 14.6875 25.525391 L 15.605469 25.919922 L 18.101562 26.990234 A 1.5 1.477 0 0 0 18 27.523438 A 1.5 1.477 0 0 0 19.5 29 A 1.5 1.477 0 0 0 20.847656 28.166016 L 21.722656 28.541016 L 21.683594 28.642578 A 1.0001 1.0001 0 0 0 21.662109 28.705078 L 21.044922 30.705078 A 1.0001 1.0001 0 0 0 21 31 L 21 33 A 1.0001 1.0001 0 0 0 22 34 C 22.631246 34 23.140625 34.599609 23.140625 34.599609 A 1.0001 1.0001 0 0 0 23.941406 35 L 26.058594 35 A 1.0001 1.0001 0 0 0 26.808594 34.662109 C 26.808594 34.662109 27.570525 34 28 34 A 1.0001 1.0001 0 0 0 29 33 L 29 31 A 1.0001 1.0001 0 0 0 28.955078 30.705078 L 28.337891 28.705078 A 1.0001 1.0001 0 0 0 28.316406 28.642578 L 28.277344 28.541016 L 29.15625 28.164062 A 1.5 1.5 0 0 0 30.5 29 A 1.5 1.5 0 0 0 32 27.5 A 1.5 1.5 0 0 0 31.908203 26.986328 L 34.394531 25.919922 L 35.3125 25.525391 L 34.525391 23.6875 L 33.605469 24.080078 L 26.605469 27.080078 A 1.0001 1.0001 0 0 0 26.066406 28.357422 L 26.435547 29.326172 L 27 31.150391 L 27 32.337891 C 26.346914 32.587678 25.91074 32.749866 25.669922 33 L 24.333984 33 C 24.07832 32.732798 23.637332 32.589268 23 32.345703 L 23 31.150391 L 23.564453 29.326172 L 23.933594 28.357422 A 1.0001 1.0001 0 0 0 23.394531 27.080078 L 16.394531 24.080078 L 15.474609 23.6875 z M 10.441406 24 L 10.894531 24 C 10.937801 24.091969 10.960818 24.140003 11 24.222656 C 10.997742 24.760688 10.992865 24.98197 11 26.007812 C 11.0069 26.964485 10.764767 29.341959 10.513672 31.472656 C 10.467962 31.860532 10.431165 32.154549 10.386719 32.521484 L 10 32.308594 L 10 30.699219 A 1.0001 1.0001 0 0 0 9.9101562 30.287109 L 9 28.283203 L 9 25.585938 L 10.441406 24 z M 39 24 L 39.558594 24 L 41 25.585938 L 41 28.283203 L 40.089844 30.287109 A 1.0001 1.0001 0 0 0 40 30.699219 L 40 32.308594 L 39.613281 32.521484 C 39.568835 32.15456 39.532038 31.860556 39.486328 31.472656 C 39.235232 29.341829 38.993143 26.963909 39 26.007812 C 39.008024 24.854021 39.002675 24.509496 39 24 z M 12.472656 31.939453 L 12.957031 32.4375 C 13.654574 33.192513 14 34.063707 14 34.947266 L 14 40.849609 C 12.766946 38.111069 12 36.5615 12 36 C 12 36.09093 12.05778 35.382237 12.152344 34.591797 C 12.239288 33.86502 12.356553 32.917327 12.472656 31.939453 z M 37.527344 31.939453 C 37.643367 32.916896 37.760769 33.865433 37.847656 34.591797 C 37.942217 35.382316 38 36.090928 38 36 C 38 36.562959 37.233612 38.111531 36 40.851562 L 36 34.947266 C 36 34.063707 36.345426 33.192513 37.042969 32.4375 C 37.044269 32.4361 37.045575 32.434994 37.046875 32.433594 L 37.527344 31.939453 z M 20.009766 36 C 18.405929 36 17.074219 37.284774 17.074219 38.851562 L 17.074219 40.125 C 17.074219 41.749823 18.429333 43 20 43 L 25 43 L 30 43 C 31.570667 43 33 41.798236 33 40.125 L 33 38.851562 C 33 37.199262 31.605738 36 30.064453 36 C 28.870533 36 28.109648 36.335753 27.515625 36.570312 C 26.921602 36.804873 26.388889 37 25 37 C 23.611111 37 23.078726 36.804956 22.498047 36.572266 C 21.917368 36.339575 21.172686 36 20.009766 36 z M 30.064453 38 C 30.457168 38 31 38.465863 31 38.851562 L 31 40.125 C 31 40.489764 30.429333 41 30 41 L 30 38.003906 C 30.024244 38.003632 30.039227 38 30.064453 38 z M 20 38.001953 L 20 41 C 19.570667 41 19.074219 40.538177 19.074219 40.125 L 19.074219 38.851562 C 19.074219 38.38527 19.416537 38.006669 20 38.001953 z M 22 38.515625 C 22.487952 38.695373 23.116012 38.870708 24 38.951172 L 24 41 L 22 41 L 22 38.515625 z M 28 38.519531 L 28 41 L 26 41 L 26 38.951172 C 26.881747 38.870986 27.509979 38.697858 28 38.519531 z"/></svg>