<?xml version="1.0" standalone="no"?>
<!DOCTYPE svg PUBLIC "-//W3C//DTD SVG 20010904//EN"
 "http://www.w3.org/TR/2001/REC-SVG-20010904/DTD/svg10.dtd">
<svg version="1.0" xmlns="http://www.w3.org/2000/svg"
 width="512.000000pt" height="512.000000pt" viewBox="0 0 512.000000 512.000000"
 preserveAspectRatio="xMidYMid meet">

<g transform="translate(0.000000,512.000000) scale(0.100000,-0.100000)"
fill="#000000" stroke="none">
<path d="M584 5109 c-54 -15 -127 -72 -157 -120 -19 -31 -32 -70 -38 -115 -6
-43 -8 -949 -7 -2364 l3 -2295 28 -57 c30 -61 64 -95 131 -131 l41 -22 1975 0
1975 0 41 22 c67 36 101 70 131 131 l28 57 0 2345 0 2345 -21 45 c-30 65 -69
107 -128 138 l-51 27 -1960 2 c-1159 1 -1973 -2 -1991 -8z m3932 -155 c69 -33
64 167 64 -2394 0 -2561 5 -2361 -64 -2394 -31 -15 -198 -16 -1956 -16 -1758
0 -1925 1 -1956 16 -69 33 -64 -167 -64 2394 0 2555 -5 2360 62 2393 30 15
200 17 1956 17 1760 0 1927 -1 1958 -16z"/>
<path d="M813 4700 c-13 -11 -24 -38 -28 -62 -3 -24 -5 -634 -3 -1355 l3
-1312 23 -23 23 -23 579 0 c566 0 580 0 599 20 23 23 821 2652 821 2703 0 19
-8 39 -22 52 -22 20 -29 20 -998 20 -959 0 -977 0 -997 -20z m747 -166 c-83
-56 -100 -74 -100 -109 0 -17 6 -38 13 -47 6 -8 100 -75 207 -148 107 -73 197
-135 200 -137 2 -2 -109 -1 -248 3 l-252 7 -25 -23 c-14 -13 -25 -34 -25 -46
0 -12 23 -87 51 -166 76 -212 108 -308 105 -308 -2 0 -86 64 -187 141 -101 78
-194 146 -206 151 -30 14 -70 2 -85 -25 -6 -12 -24 -62 -39 -112 l-28 -90 0
473 -1 472 337 0 338 0 -55 -36z m1093 19 c-2 -10 -172 -571 -376 -1248 l-372
-1230 -483 -3 -482 -2 0 507 0 507 83 283 c45 156 85 283 89 283 4 0 118 -86
254 -190 135 -105 257 -193 271 -196 37 -10 77 24 80 67 2 23 -32 131 -101
324 -57 160 -103 291 -101 293 1 2 146 -1 321 -7 348 -11 356 -10 370 44 14
55 2 66 -266 249 -143 98 -262 182 -265 186 -2 3 42 39 98 78 l102 71 392 0
c368 1 391 0 386 -16z"/>
<path d="M3112 4700 c-12 -12 -22 -22 -22 -24 0 -2 -180 -599 -400 -1326 -220
-728 -400 -1338 -400 -1355 0 -20 8 -39 21 -51 20 -18 51 -19 1000 -19 l978 0
23 23 23 23 0 619 0 619 -22 22 c-29 29 -77 29 -106 0 -21 -21 -22 -31 -27
-258 l-5 -236 -154 -119 c-84 -65 -155 -117 -157 -116 -1 2 31 97 72 212 41
115 74 219 74 232 0 12 -9 32 -19 45 l-19 24 -224 -3 c-122 -2 -232 -6 -243
-9 -33 -9 -11 8 180 140 99 68 186 135 194 149 28 49 6 72 -199 213 -105 71
-190 130 -190 132 0 1 107 -1 238 -4 235 -6 239 -6 260 15 12 12 22 33 22 46
0 14 -34 120 -75 237 -42 116 -74 213 -73 214 2 1 73 -52 158 -117 l155 -120
5 -240 c5 -237 5 -240 29 -259 47 -38 104 -20 121 39 13 48 14 1164 0 1211
-18 63 10 60 -621 61 -565 0 -576 0 -597 -20z m1068 -365 c0 -129 -2 -235 -4
-235 -3 0 -105 77 -226 170 -235 181 -258 192 -300 150 -11 -11 -20 -33 -20
-49 0 -16 36 -132 81 -258 45 -125 90 -252 100 -282 l19 -53 -193 6 c-412 13
-433 13 -456 -8 -17 -15 -21 -29 -19 -60 l3 -41 258 -176 258 -177 -238 -163
c-131 -89 -248 -171 -260 -182 -30 -27 -31 -79 -2 -108 21 -21 24 -21 335 -14
l314 7 -11 -28 c-84 -220 -190 -540 -187 -566 4 -39 46 -73 80 -65 22 6 132
87 386 284 l82 64 0 -240 0 -241 -861 0 c-684 0 -860 3 -856 13 2 6 172 569
378 1249 l374 1238 483 0 482 0 0 -235z"/>
<path d="M809 1651 l-24 -19 -3 -554 c-2 -304 0 -572 3 -596 4 -24 15 -51 28
-62 21 -20 41 -20 1747 -20 1706 0 1726 0 1747 20 13 11 24 38 28 62 3 24 5
292 3 596 l-3 554 -24 19 c-23 18 -60 19 -1410 19 -1548 0 -1431 6 -1431 -69
0 -26 7 -44 21 -57 20 -18 59 -19 1355 -22 l1334 -2 0 -485 0 -485 -1620 0
-1620 0 0 484 0 485 174 3 c200 3 216 9 216 79 0 66 -11 69 -271 69 -208 0
-229 -2 -250 -19z"/>
<path d="M1995 1325 c-22 -21 -25 -33 -25 -100 0 -68 3 -79 26 -102 20 -20 31
-24 57 -19 52 10 67 37 67 123 0 65 -3 77 -25 98 -13 14 -36 25 -50 25 -14 0
-37 -11 -50 -25z"/>
<path d="M3025 1325 c-22 -21 -25 -33 -25 -98 0 -86 15 -113 67 -123 26 -5 37
-1 57 19 23 23 26 34 26 102 0 67 -3 79 -25 100 -13 14 -36 25 -50 25 -14 0
-37 -11 -50 -25z"/>
<path d="M2370 1230 c-25 -25 -26 -70 -1 -102 11 -13 43 -37 73 -53 43 -24 65
-29 118 -29 105 0 210 68 210 135 0 67 -74 90 -137 42 -24 -19 -48 -28 -73
-28 -25 0 -49 9 -73 28 -43 32 -89 35 -117 7z"/>
</g>
</svg>
